<svg xmlns="http://www.w3.org/2000/svg" width="18" height="18" fill="none"><path fill="#fff" fill-rule="evenodd" d="M9 2.7a.9.9 0 0 0 .9-.9V.9a.9.9 0 1 0-1.8 0v.9a.9.9 0 0 0 .9.9ZM1.8 8.1a.9.9 0 1 1 0 1.8H.9a.9.9 0 1 1 0-1.8h.9Zm.837 6.039.639-.639a.9.9 0 0 1 1.269 1.269l-.639.639a.9.9 0 0 1-1.269 0 .9.9 0 0 1 0-1.269Zm12.087-9.594a.9.9 0 0 1-.63.261.9.9 0 0 1-.594-.261.9.9 0 0 1 0-1.269l.594-.639a.9.9 0 1 1 1.269 1.269l-.639.639Zm-11.43 0a.9.9 0 0 0 1.269 0 .9.9 0 0 0 0-1.269l-.639-.639a.904.904 0 0 0-1.287 1.269l.657.639ZM16.2 8.1h.9a.9.9 0 1 1 0 1.8h-.9a.9.9 0 1 1 0-1.8Zm-1.476 5.4a.9.9 0 0 0-1.224 1.224l.639.639a.9.9 0 0 0 1.269 0 .9.9 0 0 0 0-1.269l-.684-.594ZM4.05 9A4.95 4.95 0 0 1 9 4.05 4.959 4.959 0 0 1 13.95 9a4.95 4.95 0 0 1-9.9 0ZM9 12.15a3.15 3.15 0 1 1 0-6.3 3.15 3.15 0 0 1 0 6.3Zm-.9 4.05a.9.9 0 1 1 1.8 0v.9a.9.9 0 1 1-1.8 0v-.9Z" clip-rule="evenodd"/></svg>